<svg xmlns="http://www.w3.org/2000/svg" viewBox="0 0 632.81 739.02"><defs><style>.cls-1{fill:#ffce29;}</style></defs><title>C.preto</title><g id="type"><polygon points="608.89 191.18 615.76 535.94 320.62 714.26 18.62 547.83 11.76 203.07 306.89 24.75 608.89 191.18"/><path class="cls-1" d="M313.76,210.67q34.8,19.46,68.85,39.29t68.1,39.29Q440.6,296,430.88,301.41T410.3,312.82q-23.58-13.47-47.71-27.5t-47.71-27.5q-24.69,13.47-48.83,27.68t-48.83,28.44V425.07q6,3.38,12.35,6.74t12.35,6.73q18,10.11,35.92,21.33t35.92,21.33q24.69-14.22,48.83-28.06t47.71-28.07l40.41,23.58q-34.05,20.21-67.92,39.85t-67.91,39.85q-35.55-20.21-69.41-39.85l-68.66-39.85V290.37q34-20.21,68.47-39.85T313.76,210.67Z"/></g></svg>