<svg xmlns="http://www.w3.org/2000/svg" viewBox="0 0 840.57 581.12"><defs><style>.cls-1{fill:none;stroke:#ffc022;stroke-miterlimit:10;stroke-width:10px;}</style></defs><title>colmeia</title><g id="type"><polygon class="cls-1" points="172.8 458.83 172.8 525.35 230.41 558.6 288.01 525.35 288.01 458.83 230.41 425.58 172.8 458.83"/><polygon class="cls-1" points="230.41 160.12 230.41 226.64 288.01 259.89 345.61 226.64 345.61 160.12 288.01 126.87 230.41 160.12"/><polygon class="cls-1" points="115.2 160.12 115.2 226.64 172.81 259.89 230.41 226.64 230.41 160.12 172.81 126.87 115.2 160.12"/><polygon class="cls-1" points="633.62 61.86 633.62 128.37 691.22 161.63 748.82 128.37 748.82 61.86 691.22 28.6 633.62 61.86"/><polygon class="cls-1" points="691.22 160.12 691.22 226.64 748.82 259.89 806.42 226.64 806.42 160.12 748.82 126.87 691.22 160.12"/><polygon class="cls-1" points="288.01 458.83 288.01 525.35 345.61 558.6 403.21 525.35 403.21 458.83 345.61 425.58 288.01 458.83"/><polygon class="cls-1" points="403.21 458.83 403.21 525.35 460.81 558.6 518.41 525.35 518.41 458.83 460.81 425.58 403.21 458.83"/><polygon class="cls-1" points="345.61 359.27 345.61 425.79 403.21 459.04 460.81 425.79 460.81 359.27 403.21 326.02 345.61 359.27"/><polygon class="cls-1" points="57.6 259.6 57.6 326.11 115.2 359.37 172.81 326.11 172.81 259.6 115.2 226.34 57.6 259.6"/><polygon class="cls-1" points="403.21 259.6 403.21 326.11 460.81 359.37 518.41 326.11 518.41 259.6 460.81 226.34 403.21 259.6"/><polygon class="cls-1" points="288.01 61.86 288.01 128.37 345.61 161.63 403.21 128.37 403.21 61.86 345.61 28.6 288.01 61.86"/><polygon class="cls-1" points="460.81 359.27 460.81 425.79 518.41 459.04 576.01 425.79 576.01 359.27 518.41 326.02 460.81 359.27"/><polygon class="cls-1" points="518.41 259.6 518.41 326.11 576.01 359.37 633.62 326.11 633.62 259.6 576.01 226.34 518.41 259.6"/><polygon class="cls-1" points="576.01 359.27 576.01 425.79 633.62 459.04 691.22 425.79 691.22 359.27 633.62 326.02 576.01 359.27"/><polygon class="cls-1" points="518.41 458.83 518.41 525.35 576.01 558.6 633.62 525.35 633.62 458.83 576.01 425.58 518.41 458.83"/><polygon class="cls-1" points="633.62 458.83 633.62 525.35 691.22 558.6 748.82 525.35 748.82 458.83 691.22 425.58 633.62 458.83"/><polygon class="cls-1" points="691.22 359.27 691.22 425.79 748.82 459.04 806.42 425.79 806.42 359.27 748.82 326.02 691.22 359.27"/></g></svg>