<svg xmlns="http://www.w3.org/2000/svg" viewBox="0 0 1127.01 739.02"><defs><style>.cls-1{fill:#ffce29;}</style></defs><title>Marcasimbolopreto</title><g id="type"><polygon points="714.67 278.17 718.19 454.75 567.02 546.09 412.34 460.84 408.83 284.26 559.99 192.93 714.67 278.17"/><path class="cls-1" d="M563.51,288.15q17.82,10,35.26,20.13t34.88,20.12q-5.17,3.45-10.16,6.23T613,340.47q-12.08-6.9-24.43-14.08T564.08,312.3q-12.65,6.9-25,14.18t-25,14.57V398q3.06,1.72,6.33,3.45t6.32,3.45q9.19,5.17,18.4,10.92t18.4,10.93q12.65-7.29,25-14.38T613,398L633.65,410q-17.45,10.35-34.78,20.41t-34.79,20.41q-18.21-10.35-35.55-20.41L493.36,410V329q17.44-10.35,35.08-20.41T563.51,288.15Z"/></g></svg>