<svg xmlns="http://www.w3.org/2000/svg" viewBox="0 0 1127.01 739.02"><defs><style>.cls-1{fill:#ffce29;}</style></defs><title>marcasimboloamarelo</title><g id="type"><polygon class="cls-1" points="877.63 194.86 884.35 532.51 595.3 707.16 299.53 544.16 292.8 206.51 581.85 31.86 877.63 194.86"/><path d="M588.58,213.94Q622.66,233,656,252.42T722.7,290.9q-9.88,6.6-19.42,11.91T683.12,314Q660,300.79,636.4,287.05t-46.73-26.93q-24.18,13.19-47.82,27.12T494,315.09V423.93q5.85,3.3,12.09,6.59t12.09,6.6Q535.81,447,553.4,458t35.18,20.89Q612.76,465,636.4,451.41t46.72-27.48L722.7,447q-33.35,19.78-66.51,39t-66.52,39q-34.81-19.79-68-39t-67.25-39V292q33.35-19.78,67.06-39T588.58,213.94Z"/></g></svg>