<svg xmlns="http://www.w3.org/2000/svg" viewBox="0 0 1127.01 739.02"><title>Marcatipografia</title><g id="type"><path d="M130.79,253.52q18.6,10.39,36.8,21t36.4,21q-5.4,3.6-10.6,6.5t-11,6.1q-12.6-7.2-25.5-14.7t-25.5-14.7q-13.2,7.2-26.1,14.8t-26.1,15.2v59.4q3.19,1.8,6.6,3.6t6.6,3.6q9.6,5.4,19.2,11.4t19.2,11.4q13.2-7.61,26.1-15t25.5-15l21.6,12.6q-18.19,10.8-36.3,21.3t-36.3,21.3q-19-10.8-37.1-21.3l-36.7-21.3v-84.6q18.19-10.8,36.6-21.3T130.79,253.52Z"/><path d="M295,256.72q19,10.39,37.1,21.1t36.7,21.5q-.41,20.4-.2,40.6t.2,41v2.4a3.93,3.93,0,0,1-1.9,1.8,15.4,15.4,0,0,1-2.9,1.2q-16.8,10-34,19.8t-34.4,19.8q-18.6-10.41-36.9-21.1t-36.9-21.5q.41-21.79.2-41t-.2-38.2v-4.8a16.31,16.31,0,0,1,2.1-1.5,17.42,17.42,0,0,1,2.7-1.5q8.21-4.6,15.9-9t15.9-9q9.6-5.81,18.6-11T295,256.72Zm-51.6,55.2v59.4q13.2,7.6,26.1,15t25.5,15q11.81-6.81,23-13.2t22.6-13.2l1.4-.7c.67-.33,1.37-.7,2.1-1.1a14.66,14.66,0,0,0,2-1.3,4,4,0,0,0,1.1-1.1,7.47,7.47,0,0,0,.2-3.2c-.13-1.47-.2-2.8-.2-4v-51.6q-12.6-7.6-25.8-15.2t-25.8-14.8q-13.2,7.2-26.1,14.8T243.39,311.92Z"/><path d="M386,129.52q5.4,3.19,10.8,6.1t10.8,6.5v228.6L386,383.32V129.52Z"/><path d="M504.79,256.72q13.2,7.2,26.1,14.8t25.5,15.2q13.2-7.2,26.1-14.8t25.5-15.2q18.6,10.8,36.9,21.3t36.9,21.3v84.6l-21.6-12.6v-59.4q-6.41-4-12.9-7.7t-12.9-7.3q-6.79-3.6-13.1-7.5t-12.7-7.5q-13.2,7.6-26.1,14.9t-26.1,14.5q-12.6-7.2-25.5-14.5t-25.5-14.9q-13.2,7.6-26.1,15t-25.5,15v59.4q-5.4,3.19-11.1,6.2t-11.1,5.8v-126q5.81,2.81,11.3,5.9t10.9,6.7v16.8q13.2-7.2,25.8-14.8Z"/><path d="M842.39,295.52q-18.2,10.8-36.4,21.3t-36.8,21.3q-5-3.19-10.3-6.3t-10.7-6.3q12.6-7.61,25.5-15t25.5-15q-7.2-4.61-14.7-8.7t-14.7-8.1q-13.2,7.2-26.1,14.8t-26.1,15.2v59.4q13.2,7.61,26.1,15t25.5,15q13.2-7.61,25.8-15t25.8-15l21.6,12.6q-18.2,10.8-36.4,21.2t-36.8,20.8q-18.2-10.41-36.4-21t-36.8-21v-84.6q15.4-9,31.6-18.3t32-18.3q2.2-1.39,4.5-2.9a34.08,34.08,0,0,1,4.5-2.5,3.56,3.56,0,0,1,2.9.5,37.61,37.61,0,0,0,3.7,1.9q16.8,10,33.9,19.7T842.39,295.52Z"/><path d="M861.19,296.52c3.47,2.13,6.86,4.23,10.2,6.3s6.73,4.17,10.2,6.3q-.2,10.2-.3,17.5t-.1,13.7q0,6.4.1,12.9t.3,15.1q-5.21,3-10.3,6.2t-11.1,6.2C860.19,378.59,861.19,296.65,861.19,296.52Z"/><path d="M973.79,253.52q18.6,10.8,36.9,21.3t36.9,21.3c-.67,27.73-.76,57.51-.09,85.77-.67,0-18.48-10.53-21.81-12.4l-.3-53.57c0-.93.06-2.13.2-3.6a10.29,10.29,0,0,0-.2-3.6c0-.27-.27-.6-.8-1a12.14,12.14,0,0,0-1.8-1.1c-.67-.33-1.34-.63-2-.9s-1.14-.47-1.4-.6q-11.4-6.8-22.8-13.2t-22.8-13.2q-12.6,7.2-25.5,14.8t-26.1,15.2v59.4q11.79,7.2,23.9,14.1l24.7,14.1a9.67,9.67,0,0,0,1.5,1.1,3.84,3.84,0,0,0,1.5.7,4,4,0,0,0,1.5-.7,11.85,11.85,0,0,1,2.1-1.1l13.1-7.7c4.2-2.47,11.83-7.13,16.1-9.53,3.6,1.86,18.05,11,21.38,13.09-8.4,4.8-20.08,11.44-28.68,16.44s-17.1,9.9-25.5,14.7q-18.6-10.8-36.8-21.3t-36.4-21.3v-84.6q18.2-10.39,36.4-21.1T973.79,253.52Zm73.68,126.94c0,9.58.12,17.16.12,25.46q-11.4-5.81-22.2-12.3t-21.6-12.9q5.4-3.2,10.8-6c3.6-1.87,7.5-3.87,11.09-6,3.61,1.87,6.94,3.87,10.61,6S1043.6,378.59,1047.47,380.46Z"/></g></svg>