<svg width="642" height="675" xmlns="http://www.w3.org/2000/svg">
 <defs>
  <style>.cls-1{fill:#ffce29;}</style>
 </defs>
 <title>marcasimboloamarelo</title>
 <g>
  <title>background</title>
  <rect fill="none" id="canvas_background" height="677" width="644" y="-1" x="-1"/>
 </g>
 <g>
  <title>Layer 1</title>
  <g id="type">
   <polygon id="svg_1" points="610.0551147460938,163 616.7749633789062,500.6500244140625 327.7250061035156,675.2999572753906 31.955047607421875,512.2999572753906 25.22503662109375,174.64999389648438 314.2749938964844,0 610.0551147460938,163 " class="cls-1"/>
   <path id="svg_2" d="m321.005049,182.079999q34.08,19.06 67.42,38.48t66.7,38.48q-9.88,6.6 -19.42,11.91t-20.16,11.19q-23.12,-13.21 -46.72,-26.95t-46.73,-26.93q-24.18,13.19 -47.82,27.12t-47.85,27.85l0,108.84q5.85,3.3 12.09,6.59t12.09,6.6q17.63,9.88 35.22,20.88t35.18,20.89q24.18,-13.89 47.82,-27.48t46.72,-27.48l39.58,23.07q-33.35,19.78 -66.51,39t-66.52,39q-34.81,-19.79 -68,-39t-67.25,-39l0,-155q33.35,-19.78 67.06,-39t67.1,-39.06z"/>
  </g>
 </g>
</svg>