<svg xmlns="http://www.w3.org/2000/svg" viewBox="0 0 658.12 176.21"><defs><style>.cls-1{isolation:isolate;}.cls-2{opacity:0.15;}.cls-3{fill:#ffe255;}.cls-4{fill:#ffc022;}.cls-5,.cls-9{opacity:0.3;mix-blend-mode:overlay;}.cls-6,.cls-7{fill-rule:evenodd;}.cls-7,.cls-8{fill:#fff;}</style></defs><title>redes</title><g class="cls-1"><g id="type"><g class="cls-2"><path d="M88.35,160.51l52.46-30.29a9.64,9.64,0,0,0,4.83-8.36V61.29a9.65,9.65,0,0,0-4.83-8.37L88.35,22.63a9.69,9.69,0,0,0-9.66,0L26.24,52.92a9.65,9.65,0,0,0-4.83,8.37v60.57a9.64,9.64,0,0,0,4.83,8.36l52.45,30.29A9.64,9.64,0,0,0,88.35,160.51Z"/></g><path class="cls-3" d="M83.72,158.52l52.45-30.28a9.67,9.67,0,0,0,4.83-8.37V59.3a9.67,9.67,0,0,0-4.83-8.37L83.72,20.64a9.71,9.71,0,0,0-9.67,0L21.6,50.93a9.67,9.67,0,0,0-4.83,8.37v60.57a9.67,9.67,0,0,0,4.83,8.37l52.45,30.28A9.66,9.66,0,0,0,83.72,158.52Z"/><path class="cls-4" d="M136.17,50.93,83.72,20.64a9.71,9.71,0,0,0-4.83-1.29V159.82a9.62,9.62,0,0,0,4.83-1.3l52.45-30.28a9.67,9.67,0,0,0,4.83-8.37V59.3A9.67,9.67,0,0,0,136.17,50.93Z"/><path class="cls-3" d="M411.61,157.61l52.45-30.28a9.67,9.67,0,0,0,4.83-8.37V58.39A9.67,9.67,0,0,0,464.06,50L411.61,19.74a9.64,9.64,0,0,0-9.66,0L349.49,50a9.67,9.67,0,0,0-4.83,8.37V119a9.67,9.67,0,0,0,4.83,8.37L402,157.61A9.64,9.64,0,0,0,411.61,157.61Z"/><path class="cls-4" d="M464.06,50,411.61,19.74a9.62,9.62,0,0,0-4.83-1.3V158.91a9.73,9.73,0,0,0,4.83-1.3l52.45-30.28a9.67,9.67,0,0,0,4.83-8.37V58.39A9.67,9.67,0,0,0,464.06,50Z"/><g class="cls-5"><path class="cls-6" d="M409.49,56.74c5.24.15,10.49.19,15.73.48a19.21,19.21,0,0,1,12.68,5.17,18.29,18.29,0,0,1,5.57,11.82c.33,3.31.43,6.66.46,10,.05,6,0,12-.08,18a37.67,37.67,0,0,1-.91,9.23c-2.07,7.87-7.2,12.54-15.16,13.81a75.92,75.92,0,0,1-11.09.66c-6,.08-12.09,0-18.13-.08a37.88,37.88,0,0,1-9.07-.88c-7.88-2-12.58-7.15-13.88-15.11a75.23,75.23,0,0,1-.67-11.24c-.08-6,0-12,.08-18A37.11,37.11,0,0,1,376,71c2.15-7.65,7.24-12.16,15-13.41a94.64,94.64,0,0,1,11.32-.69c2.38-.09,4.77,0,7.16,0Zm-.13,63v-.13c2.81,0,5.62.07,8.43,0s5.51-.13,8.25-.43c6.07-.65,10.09-4.39,11-10.43a67.39,67.39,0,0,0,.58-9.1c.09-5.49.09-11,0-16.46,0-2.8-.12-5.62-.42-8.41-.65-6.08-4.39-10.1-10.42-11a66.56,66.56,0,0,0-8.94-.58c-5.62-.1-11.24-.09-16.86,0-2.75,0-5.51.13-8.25.43-6,.66-10,4.39-11,10.39a67,67,0,0,0-.59,9.18c-.08,6.09-.06,12.19,0,18.28a49.84,49.84,0,0,0,.53,7.44c.82,5,3.64,8.39,8.59,9.78a19.45,19.45,0,0,0,4.54.72C399.72,119.56,404.54,119.63,409.36,119.75Z"/><path class="cls-6" d="M409.46,73.64a17.74,17.74,0,1,1-17.77,17.73A17.73,17.73,0,0,1,409.46,73.64ZM398,91.32a11.47,11.47,0,1,0,11.53-11.41A11.47,11.47,0,0,0,398,91.32Z"/><path class="cls-6" d="M427.87,77.14A4.16,4.16,0,1,1,432,73,4.13,4.13,0,0,1,427.87,77.14Z"/></g><path class="cls-7" d="M406.84,54.09c5.24.15,10.49.19,15.73.48a19.21,19.21,0,0,1,12.68,5.17,18.29,18.29,0,0,1,5.57,11.81c.33,3.32.43,6.67.46,10,.05,6,0,12-.08,18a37.71,37.71,0,0,1-.91,9.23c-2.07,7.87-7.2,12.54-15.16,13.81a75.92,75.92,0,0,1-11.09.66c-6,.08-12.09,0-18.13-.08a37.88,37.88,0,0,1-9.07-.88c-7.88-2-12.58-7.15-13.88-15.11a76.58,76.58,0,0,1-.67-11.24c-.08-6,0-12,.08-18a37.11,37.11,0,0,1,1-9.62c2.15-7.65,7.24-12.16,15-13.41a94.64,94.64,0,0,1,11.32-.69c2.38-.09,4.77,0,7.16,0Zm-.13,63V117c2.81,0,5.62.07,8.43,0s5.51-.13,8.25-.43c6.07-.65,10.09-4.39,11-10.43A67.44,67.44,0,0,0,435,97c.09-5.48.09-11,0-16.45,0-2.81-.12-5.62-.42-8.41-.65-6.08-4.39-10.1-10.42-11a66.67,66.67,0,0,0-8.94-.58c-5.62-.1-11.24-.09-16.86,0-2.75,0-5.51.13-8.25.43-6,.66-10.05,4.39-11,10.39a66.87,66.87,0,0,0-.59,9.18c-.08,6.09-.06,12.19,0,18.28a49.84,49.84,0,0,0,.53,7.44c.82,5,3.64,8.39,8.59,9.78a19.45,19.45,0,0,0,4.54.72C397.07,116.91,401.89,117,406.71,117.09Z"/><path class="cls-7" d="M406.81,71A17.74,17.74,0,1,1,389,88.72,17.73,17.73,0,0,1,406.81,71Zm-11.5,17.68a11.47,11.47,0,1,0,11.53-11.41A11.47,11.47,0,0,0,395.31,88.67Z"/><path class="cls-7" d="M425.22,74.49a4.16,4.16,0,1,1,4.16-4.13A4.13,4.13,0,0,1,425.22,74.49Z"/><g class="cls-2"><path d="M584.19,161.25,636.65,131a9.67,9.67,0,0,0,4.83-8.37V62a9.64,9.64,0,0,0-4.83-8.36L584.19,23.38a9.69,9.69,0,0,0-9.66,0L522.08,53.67A9.64,9.64,0,0,0,517.25,62V122.6a9.67,9.67,0,0,0,4.83,8.37l52.45,30.28A9.64,9.64,0,0,0,584.19,161.25Z"/></g><path class="cls-3" d="M579.56,159.27,632,129a9.64,9.64,0,0,0,4.83-8.36V60.05A9.65,9.65,0,0,0,632,51.68L579.56,21.39a9.69,9.69,0,0,0-9.66,0L517.44,51.68a9.65,9.65,0,0,0-4.83,8.37v60.57a9.64,9.64,0,0,0,4.83,8.36l52.46,30.29A9.64,9.64,0,0,0,579.56,159.27Z"/><path class="cls-4" d="M632,51.68,579.56,21.39a9.69,9.69,0,0,0-4.83-1.29V160.56a9.69,9.69,0,0,0,4.83-1.29L632,129a9.64,9.64,0,0,0,4.83-8.36V60.05A9.65,9.65,0,0,0,632,51.68Z"/><g class="cls-5"><path class="cls-6" d="M616.36,77.24A11.67,11.67,0,0,0,604.67,65.6L550,65.73a11.66,11.66,0,0,0-11.63,11.7l.07,31.29a11.67,11.67,0,0,0,11.7,11.64l54.71-.13a11.68,11.68,0,0,0,11.64-11.7Zm-42.79,26.33c-2.18,1.45-4,.49-4-2.13l0-19.86c0-2.62,1.78-3.59,4-2.16l14.35,9.42c2.2,1.44,2.2,3.8,0,5.24Zm-4,2.63"/></g><path class="cls-7" d="M613.71,74.59A11.67,11.67,0,0,0,602,63l-54.72.13a11.66,11.66,0,0,0-11.63,11.7l.07,31.29a11.67,11.67,0,0,0,11.7,11.64l54.71-.13a11.68,11.68,0,0,0,11.64-11.7Zm-42.79,26.33c-2.18,1.45-4,.49-4-2.13l0-19.86c0-2.62,1.78-3.59,4-2.16l14.36,9.42c2.19,1.44,2.19,3.8,0,5.24Zm-4,2.63"/><g class="cls-2"><path d="M253.71,160.51l52.46-30.29a9.64,9.64,0,0,0,4.83-8.36V61.29a9.65,9.65,0,0,0-4.83-8.37L253.71,22.63a9.69,9.69,0,0,0-9.66,0L191.6,52.92a9.65,9.65,0,0,0-4.83,8.37v60.57a9.64,9.64,0,0,0,4.83,8.36l52.45,30.29A9.64,9.64,0,0,0,253.71,160.51Z"/></g><path class="cls-3" d="M249.08,158.52l52.45-30.28a9.67,9.67,0,0,0,4.83-8.37V59.3a9.67,9.67,0,0,0-4.83-8.37L249.08,20.64a9.71,9.71,0,0,0-9.67,0L187,50.93a9.67,9.67,0,0,0-4.83,8.37v60.57a9.67,9.67,0,0,0,4.83,8.37l52.45,30.28A9.66,9.66,0,0,0,249.08,158.52Z"/><path class="cls-4" d="M301.53,50.93,249.08,20.64a9.71,9.71,0,0,0-4.83-1.29V159.82a9.62,9.62,0,0,0,4.83-1.3l52.45-30.28a9.67,9.67,0,0,0,4.83-8.37V59.3A9.67,9.67,0,0,0,301.53,50.93Z"/><g class="cls-5"><path d="M277.36,74.43c.82-1,.49-1.46-.73-1l-3,.8c-1.27.24-1.51-.25-.53-1.09L276,69.47c.62-1.13.18-1.6-1-1l-4,1.48a5.5,5.5,0,0,1-4.16-.74s-3.86-2.79-7.63-2.81a13.09,13.09,0,0,0-13.18,13v1c.19,1.08-.71,1.81-2,1.63a50.2,50.2,0,0,1-9.58-2.34,36.93,36.93,0,0,1-8-4.46,46.54,46.54,0,0,1-5.44-5,1.41,1.41,0,0,0-2.52.43,12.6,12.6,0,0,0-.88,4.42A13,13,0,0,0,220,82.63a10.29,10.29,0,0,0,1.63,1.92c1,.82.88,1.34-.27,1.15s-3.84-1.29-3.84-1.22v0a13.08,13.08,0,0,0,5.7,10.89,10.86,10.86,0,0,0,2.5,1.31c1.23.39,1.22.9,0,1.15h-2c-.89-.13-1.22.74-.74,1.93a9.27,9.27,0,0,0,.91,1.44,13.1,13.1,0,0,0,6.59,4.89,10.28,10.28,0,0,0,1.47.43c1.29.13,1.46.82.39,1.54a28.28,28.28,0,0,1-4.6,2.41,26.34,26.34,0,0,1-9.75,1.8h-1.06c-1.13-.11-1.13.3,0,.91a49.78,49.78,0,0,0,9.93,4,38,38,0,0,0,8,.92,36.16,36.16,0,0,0,24.13-8.46,38.59,38.59,0,0,0,13.36-28.6v-.57a4.77,4.77,0,0,1,1.75-2.65Z"/></g><path class="cls-8" d="M274.71,71.78c.82-1,.49-1.46-.73-1l-3,.8c-1.27.25-1.51-.25-.53-1.09l2.89-3.62c.62-1.14.18-1.61-1-1l-4,1.48a5.5,5.5,0,0,1-4.16-.74s-3.86-2.79-7.63-2.81a13.09,13.09,0,0,0-13.18,13v1c.18,1.08-.72,1.81-2,1.63a50.2,50.2,0,0,1-9.58-2.34,36.93,36.93,0,0,1-8-4.46,46.54,46.54,0,0,1-5.44-5,1.41,1.41,0,0,0-2.52.43,12.6,12.6,0,0,0-.88,4.42A13,13,0,0,0,217.32,80,10.29,10.29,0,0,0,219,81.9c1,.82.88,1.34-.27,1.15s-3.84-1.28-3.84-1.22v0a13.08,13.08,0,0,0,5.7,10.89,10.86,10.86,0,0,0,2.5,1.31c1.23.39,1.22.91,0,1.15h-2c-.89-.13-1.22.74-.73,1.93a8.38,8.38,0,0,0,.9,1.44,13.14,13.14,0,0,0,6.59,4.89,10,10,0,0,0,1.48.43c1.28.13,1.45.82.38,1.54a28.28,28.28,0,0,1-4.6,2.41,26.34,26.34,0,0,1-9.75,1.8h-1.06c-1.13-.11-1.13.3,0,.91a49.78,49.78,0,0,0,9.93,4,38,38,0,0,0,8,.92A36.16,36.16,0,0,0,256.29,107a38.59,38.59,0,0,0,13.36-28.6v-.57a4.77,4.77,0,0,1,1.75-2.65Z"/><path class="cls-9" d="M97,90.54a1.94,1.94,0,0,1-1.88,1.7H88.59a1.7,1.7,0,0,0-1.7,1.7l0,32a1.7,1.7,0,0,1-1.7,1.7l-11.32,0a1.71,1.71,0,0,1-1.7-1.7l0-32a1.71,1.71,0,0,0-1.71-1.7h-3.6a1.7,1.7,0,0,1-1.7-1.7v-9.1a1.7,1.7,0,0,1,1.7-1.7h3.6a1.7,1.7,0,0,0,1.69-1.7v-6.4c0-5.78,2.73-14.85,14.83-14.87l9.2,0a1.7,1.7,0,0,1,1.7,1.7l0,8.74A1.71,1.71,0,0,1,96.19,69H90c-1.3,0-3.13.66-3.12,3.42v5.66a1.7,1.7,0,0,0,1.7,1.7h7.81a1.51,1.51,0,0,1,1.53,1.69Zm-.18,1.69"/><path class="cls-8" d="M94.34,88a1.91,1.91,0,0,1-1.88,1.68H85.94a1.7,1.7,0,0,0-1.71,1.69l-.09,32a1.71,1.71,0,0,1-1.71,1.7l-11.32,0a1.7,1.7,0,0,1-1.69-1.7l.09-32a1.71,1.71,0,0,0-1.7-1.71H64.22a1.7,1.7,0,0,1-1.7-1.7l0-9.11a1.7,1.7,0,0,1,1.7-1.7h3.6a1.7,1.7,0,0,0,1.7-1.69l0-6.39c0-5.79,2.79-14.85,14.9-14.82l9.2.07a1.73,1.73,0,0,1,1.7,1.71l0,8.74a1.71,1.71,0,0,1-1.71,1.7l-6.21,0c-1.29,0-3.12.64-3.13,3.4v5.66A1.7,1.7,0,0,0,86,77.13l7.81,0a1.52,1.52,0,0,1,1.53,1.7Zm-.18,1.69"/></g></g></svg>